<svg width="58" height="60" viewBox="0 0 58 60" fill="none" xmlns="http://www.w3.org/2000/svg">
<path d="M47.06 2.788C44.931 1.503 43.551 1.97 42.832 2.47C42.04 1.965 41.242 1.54 40.454 1.245C38.34 0.454 34.911 0 31.046 0C27.181 0 23.751 0.454 21.638 1.245C20.849 1.54 20.051 1.965 19.259 2.47C18.538 1.972 17.158 1.51 15.035 2.792C10.204 5.713 -0.149 4.556 5.979 17.141C6.917 19.064 7.646 20.435 8.289 21.249C8.231 26.097 9.336 31.959 11.569 36.296C10.788 37.556 9.617 40.044 9.714 43.481C4.305 42.176 0 35.808 0 35.808C0 43.762 6.191 47.368 10.358 47.407C10.7855 48.8405 11.3725 50.2214 12.108 51.524C12.961 53.049 15.557 54.109 17.767 54.627C18.23 56.297 18.815 57.441 19.539 58.148C20.946 59.519 23.641 60 25.834 60C25.968 60 26.101 59.999 26.23 59.996C28.232 59.941 29.925 59.502 31.047 58.764C32.169 59.502 33.861 59.942 35.861 59.996C38.115 60.048 41.058 59.602 42.553 58.147C43.267 57.451 43.849 56.299 44.313 54.628C46.525 54.11 49.129 53.052 49.985 51.523C53.874 44.57 52.128 39.301 50.913 36.976C53.228 32.525 54.094 26.196 53.878 21.149C54.502 20.324 55.212 18.988 56.113 17.136C62.243 4.55 51.89 5.709 47.06 2.788ZM13.867 50.603C10.652 44.854 11.686 40.541 12.748 38.283C13.624 39.554 14.628 40.598 15.758 41.331C15.886 41.599 16.109 42.02 16.429 42.527C16.572 46.742 16.851 50.016 17.294 52.494C15.491 51.946 14.188 51.176 13.867 50.603ZM17.176 38.795C16.7899 38.4174 16.4831 37.9666 16.2737 37.4688C16.0643 36.9711 15.9564 36.4365 15.9564 35.8965C15.9564 35.3565 16.0643 34.8219 16.2737 34.3242C16.4831 33.8264 16.7899 33.3756 17.176 32.998L23.597 26.695C24.339 25.966 25.267 25.381 26.31 24.937C25.96 25.311 25.747 25.787 25.747 26.425C25.747 28.191 29.964 29.756 31.047 29.756C32.128 29.756 36.347 28.191 36.347 26.425C36.347 25.786 36.133 25.31 35.784 24.936C36.829 25.38 37.758 25.966 38.503 26.694L44.919 32.998C45.3051 33.3754 45.612 33.8261 45.8215 34.3238C46.031 34.8214 46.139 35.3559 46.1391 35.8958C46.1391 36.4357 46.0314 36.9702 45.822 37.4679C45.6127 37.9656 45.306 38.4165 44.92 38.794C44.1349 39.5631 43.0781 39.9915 41.979 39.986C40.9834 39.9846 40.021 39.6278 39.265 38.98L39.211 38.932C39.1539 38.8841 39.0952 38.8381 39.035 38.794L33.317 33.183L32.614 32.493C32.225 32.111 31.655 31.891 31.049 31.891C30.444 31.891 29.873 32.111 29.486 32.492L28.581 33.38L23.004 38.84C22.963 38.87 22.922 38.902 22.883 38.936L22.841 38.973C22.085 39.6258 21.1198 39.9856 20.121 39.987C19.0208 39.9922 17.9628 39.564 17.176 38.795ZM26.707 38.92C27.139 41.279 29.197 42.336 31.047 42.336C32.896 42.336 34.954 41.279 35.385 38.92C35.515 38.216 35.388 37.315 35.021 36.233L37.545 38.712L38.154 39.31L35.772 41.649C34.67 42.728 32.949 43.347 31.047 43.347C29.145 43.347 27.42 42.728 26.317 41.65L23.937 39.312L27.071 36.238C26.703 37.315 26.578 38.217 26.707 38.92ZM28.392 35.588H30.23L31.046 40.344L31.862 35.588H33.7C34.29 36.942 34.534 38.025 34.401 38.751C34.07 40.56 32.477 41.368 31.047 41.368C29.614 41.368 28.023 40.559 27.692 38.751C27.559 38.024 27.802 36.942 28.392 35.588ZM30.299 56.852C29.662 57.546 28.081 58.009 26.175 58.062C23.942 58.12 21.792 57.597 20.958 56.783C19.72 55.576 18.912 51.655 18.547 45.13C20.428 46.98 23.347 48.892 27.725 49.556C27.353 49.044 27.109 48.247 27.109 47.341C27.109 47.162 27.126 46.989 27.145 46.82C27.457 46.904 27.77 46.994 28.08 47.06C28.073 47.153 28.064 47.246 28.064 47.341C28.064 48.615 28.604 49.613 29.294 49.739C29.754 49.773 30.222 49.8 30.706 49.809C30.676 50.5143 30.659 51.2201 30.655 51.926C30.666 53.36 30.713 54.793 30.869 56.228L30.299 56.852ZM41.134 56.782C40.3 57.596 38.148 58.115 35.918 58.061C34.011 58.008 32.431 57.545 31.796 56.851L31.22 56.224C31.375 54.79 31.419 53.357 31.427 51.923C31.4225 51.2167 31.4045 50.5106 31.373 49.805C37.44 49.722 41.268 47.408 43.548 45.166C43.185 51.666 42.376 55.573 41.134 56.782ZM48.228 50.602C47.906 51.176 46.597 51.95 44.787 52.497C45.238 50.007 45.523 46.726 45.665 42.55C45.76 42.401 45.848 42.257 45.924 42.124C46.301 41.899 46.667 41.686 47.055 41.45C48.034 40.854 48.892 40.018 49.645 39.014C50.528 41.365 51.126 45.417 48.228 50.602ZM45.987 39.813C40.217 43.33 35.781 45.51 31.495 45.51C27.567 45.51 23.502 43.665 18.412 40.655C18.9602 40.8484 19.5367 40.9498 20.118 40.955C21.24 40.955 22.298 40.593 23.181 39.95L25.605 42.329C26.896 43.591 28.879 44.315 31.047 44.315C33.213 44.315 35.195 43.59 36.484 42.328L38.909 39.948C39.7983 40.6012 40.8726 40.954 41.976 40.955C43.341 40.9619 44.6537 40.43 45.629 39.475C46.1055 39.0091 46.4841 38.4526 46.7425 37.8384C47.001 37.2241 47.1341 36.5644 47.1341 35.898C47.1341 35.2316 47.001 34.5719 46.7425 33.9576C46.4841 33.3434 46.1055 32.7869 45.629 32.321L40.266 27.051C41.3084 27.8054 42.5632 28.2098 43.85 28.206C47.098 28.206 49.741 25.716 49.741 22.655C49.741 19.593 47.098 17.103 43.85 17.103C40.602 17.103 37.958 19.593 37.958 22.655C37.958 23.868 38.378 24.988 39.081 25.902C37.144 24.087 34.232 23.042 31.043 23.042C27.846 23.042 24.926 24.093 22.995 25.919C23.7281 24.9886 24.1284 23.8395 24.132 22.655C24.132 19.593 21.488 17.103 18.24 17.103C14.992 17.103 12.35 19.593 12.35 22.655C12.35 25.716 14.992 28.206 18.24 28.206C19.535 28.2092 20.7974 27.7998 21.844 27.037L16.463 32.32C15.5175 33.2459 14.978 34.509 14.9628 35.8322C14.9476 37.1555 15.458 38.4307 16.382 39.378C12.477 36.33 10.343 28.12 10.298 21.734C11.071 21.001 11.912 19.176 13.086 16.143C14.041 13.675 14.05 11.789 14.269 10.103C16.566 6.969 19.597 4.083 22.358 3.05C24.223 2.353 27.471 1.936 31.046 1.936C34.621 1.936 37.867 2.353 39.733 3.05C42.496 4.083 45.528 6.971 47.826 10.107C48.044 11.792 48.055 13.675 49.007 16.139C50.261 19.377 51.133 21.227 51.95 21.852C52.149 28.645 50.216 37.235 45.987 39.813ZM45.198 26.455C45.98 26.455 46.705 26.236 47.323 25.875C46.3823 26.7568 45.1393 27.2442 43.85 27.237C41.153 27.237 38.959 25.18 38.959 22.654C38.959 20.127 41.152 18.07 43.85 18.07C45.208 18.07 46.438 18.593 47.325 19.433C46.6804 19.0534 45.9461 18.8528 45.198 18.852C42.964 18.852 41.154 20.555 41.154 22.654C41.154 24.754 42.964 26.455 45.198 26.455ZM16.895 18.853C16.112 18.853 15.388 19.072 14.769 19.434C15.7093 18.5515 16.9525 18.0636 18.242 18.071C20.939 18.071 23.134 20.128 23.134 22.655C23.134 25.181 20.94 27.238 18.242 27.238C16.9527 27.2449 15.7098 26.7575 14.769 25.876C15.388 26.237 16.112 26.456 16.895 26.456C19.128 26.456 20.937 24.755 20.937 22.655C20.937 20.556 19.128 18.853 16.895 18.853Z" fill="black"/>
<path d="M25.039 29.623L24.14 28.78L23.242 29.625L24.14 30.468L25.039 29.623Z" fill="black"/>
<path d="M22.899 31.9459L22.001 31.101L21.103 31.9459L22.001 32.791L22.899 31.9459Z" fill="black"/>
<path d="M23.916 32.791L24.813 33.636L25.712 32.791L24.813 31.946L23.916 32.791Z" fill="black"/>
<path d="M40.989 31.9459L40.091 31.101L39.192 31.9459L40.091 32.791L40.989 31.9459Z" fill="black"/>
<path d="M38.85 29.625L37.952 28.78L37.054 29.623L37.952 30.468L38.85 29.625Z" fill="black"/>
<path d="M38.177 32.791L37.278 31.946L36.38 32.791L37.278 33.636L38.177 32.791Z" fill="black"/>
</svg>
