<svg width="37" height="31" viewBox="0 0 37 31" fill="none" xmlns="http://www.w3.org/2000/svg">
<path fill-rule="evenodd" clip-rule="evenodd" d="M22.297 12.1048L17.5 16.9028V23.6178C20.232 23.2528 22.567 22.6858 25.5 20.9888C27.638 24.9078 29.429 26.0338 30.348 26.6128C30.718 26.8458 30.948 26.9898 31 27.1918C31.12 27.6518 31.246 27.9888 31.344 28.2518C31.645 29.0548 31.689 29.1718 30.5 29.9888H34V25.4658C34 23.4888 31 18.2168 31 18.2168L35.5 23.9878C35.905 24.2408 36.452 23.7548 36 22.9878C35.811 22.4838 35.605 21.8238 35.371 21.0758C34.257 17.5088 32.524 11.9598 29.119 11.9598C28.626 11.9598 27.917 11.9858 27.083 12.0148C25.696 12.0648 23.962 12.1268 22.297 12.1048ZM15.5 23.8518V17.4878H7.586C8.393 19.2408 9.359 20.5098 10.108 21.4938C10.248 21.6768 10.378 21.8488 10.5 22.0138C11 22.6878 12.5 27.1908 10 29.2618C13.107 29.2618 13.83 30.3228 13.98 30.2478C14.048 30.2138 14 29.9508 14 29.2618V24.0128L14.933 23.9128L15.5 23.8518ZM6.822 15.4878H16.086L19.603 11.9708C19.5687 11.9675 19.5343 11.9642 19.5 11.9608C15.424 11.5258 12.807 9.96576 11 5.09977C9.333 0.611765 4 2.48776 4 6.13476C2.787 6.56476 0 7.51476 0 7.51476C0 7.51476 0.5 10.1628 1.5 11.4878C2.04 11.8818 3.836 11.9598 5 11.9598C5.411 11.9598 5.78 11.9518 6.112 11.9348C6.248 13.2698 6.5 14.4458 6.822 15.4878Z" fill="black"/>
<path d="M9 29.9877C9 29.7225 9.10536 29.4681 9.29289 29.2806C9.48043 29.093 9.73478 28.9877 10 28.9877H13C13.2652 28.9877 13.5196 29.093 13.7071 29.2806C13.8946 29.4681 14 29.7225 14 29.9877C14 30.2529 13.8946 30.5072 13.7071 30.6948C13.5196 30.8823 13.2652 30.9877 13 30.9877H10C9.73478 30.9877 9.48043 30.8823 9.29289 30.6948C9.10536 30.5072 9 30.2529 9 29.9877Z" fill="black"/>
<path d="M30 29.9877C30 29.7225 30.1054 29.4681 30.2929 29.2806C30.4804 29.093 30.7348 28.9877 31 28.9877H33C33.2652 28.9877 33.5196 29.093 33.7071 29.2806C33.8946 29.4681 34 29.7225 34 29.9877C34 30.2529 33.8946 30.5072 33.7071 30.6948C33.5196 30.8823 33.2652 30.9877 33 30.9877H31C30.7348 30.9877 30.4804 30.8823 30.2929 30.6948C30.1054 30.5072 30 30.2529 30 29.9877Z" fill="black"/>
<path d="M11.974 4.29877C13.154 5.02277 13.483 8.70077 13 9.48777C12.517 10.2748 11.405 7.87177 10.225 7.14777C9.045 6.42377 8.48 5.19877 8.963 4.41177C9.446 3.62577 10.793 3.57477 11.973 4.29877H11.974Z" fill="black"/>
<path fill-rule="evenodd" clip-rule="evenodd" d="M32.707 1.69471C32.8892 1.50611 32.99 1.25351 32.9877 0.991311C32.9854 0.729114 32.8802 0.478301 32.6948 0.292893C32.5094 0.107485 32.2586 0.00231622 31.9964 3.78026e-05C31.7342 -0.00224062 31.4816 0.0985537 31.293 0.280712L19.586 11.9877H22.414L32.707 1.69471Z" fill="black"/>
</svg>
