<svg width="45" height="35" viewBox="0 0 45 35" fill="none" xmlns="http://www.w3.org/2000/svg">
<path d="M26.3104 0.861875C27.5584 0.205625 29.0104 1.87246e-08 30.0003 1.87246e-08H34.3382C35.6972 -8.19702e-05 37.0307 0.26909 38.1962 0.77875L43.545 3.11938C43.9888 3.31377 44.3559 3.58858 44.6109 3.91708C44.8659 4.24558 44.9999 4.6166 45 4.99406V7.65625C45 8.52649 44.5259 9.36109 43.682 9.97644C42.8381 10.5918 41.6936 10.9375 40.5001 10.9375H39.0001V28.5206C40.2631 28.6628 41.5291 29.0063 42.5851 29.6472C44.115 30.5747 45 32.0031 45 33.9062C45 34.1963 44.842 34.4745 44.5607 34.6796C44.2794 34.8848 43.8979 35 43.5 35H9.00081C7.11267 35.0002 5.2723 34.5673 3.74016 33.7627C2.20803 32.958 1.06176 31.8224 0.463581 30.5165C-0.134594 29.2107 -0.154366 27.8007 0.407062 26.4862C0.968491 25.1716 2.08268 24.0192 3.59193 23.1919C3.91035 23.0244 4.30615 22.9546 4.69435 22.9975C5.08254 23.0404 5.43219 23.1926 5.66821 23.4214C5.90423 23.6502 6.0078 23.9374 5.9567 24.2213C5.9056 24.5051 5.70389 24.7631 5.39489 24.9397C4.38831 25.4911 3.64513 26.2595 3.27059 27.136C2.89604 28.0125 2.90911 28.9526 3.30794 29.8234C3.70677 30.6942 4.47115 31.4514 5.49285 31.9879C6.51455 32.5243 7.7418 32.8128 9.00081 32.8125C9.86479 32.8125 10.4108 32.6594 10.7708 32.4844C11.1267 32.3053 11.4113 32.0608 11.5957 31.7756C11.8367 31.4162 11.9745 31.0246 12.0007 30.625V30.5266L12.0127 30.2859C12.1122 29.0197 12.3733 27.763 12.7927 26.5322C13.5817 24.2353 15.1807 21.2909 18.4386 18.9131C23.9705 14.8816 24.0005 9.47406 24.0005 7.65625V4.375C24.0005 2.70594 24.9905 1.5575 26.3104 0.861875ZM26.7724 10.7188C26.3074 13.4663 24.8855 17.3075 20.5625 20.4619C17.8206 22.4591 16.4196 24.9834 15.7057 27.0616C15.3337 28.1512 15.1007 29.2635 15.0097 30.3844C15.0056 30.4478 15.0026 30.5112 15.0007 30.5747V30.6972L14.9887 30.8438C14.9223 31.53 14.6673 32.1996 14.2387 32.8125H32.7573C32.4573 32.1125 31.8483 31.3928 30.8013 30.9925C30.0872 30.7344 29.2971 30.6082 28.5004 30.625H25.5004C25.1026 30.625 24.7211 30.5098 24.4398 30.3046C24.1585 30.0995 24.0005 29.8213 24.0005 29.5312C24.0005 29.2412 24.1585 28.963 24.4398 28.7579C24.7211 28.5527 25.1026 28.4375 25.5004 28.4375H28.5004C29.0284 28.4375 29.5263 28.4681 30.0003 28.525V22.9688C30.0003 22.6787 30.1584 22.4005 30.4397 22.1954C30.721 21.9902 31.1025 21.875 31.5003 21.875C31.8981 21.875 32.2796 21.9902 32.5609 22.1954C32.8422 22.4005 33.0003 22.6787 33.0003 22.9688V29.4175C34.7402 30.3319 35.5412 31.6925 35.8442 32.8125H41.8441C41.6191 32.095 41.1691 31.6334 40.6651 31.3294C39.8941 30.8591 38.7751 30.625 37.5002 30.625C37.1024 30.625 36.7208 30.5098 36.4395 30.3046C36.1582 30.0995 36.0002 29.8213 36.0002 29.5312V9.84375C36.0002 9.55367 36.1582 9.27547 36.4395 9.07035C36.7208 8.86523 37.1024 8.75 37.5002 8.75H40.5001C40.8979 8.75 41.2794 8.63477 41.5607 8.42965C41.842 8.22453 42.0001 7.94633 42.0001 7.65625V4.99406L36.6542 2.65344C35.9544 2.34795 35.1539 2.1869 34.3382 2.1875H30.0003C29.4903 2.1875 28.6924 2.30781 28.0654 2.63813C27.5104 2.92688 27.0004 3.41906 27.0004 4.375V7.65625C27.0004 7.84656 27.0904 8.155 27.3184 8.38469C27.4894 8.55969 27.7894 8.75 28.5004 8.75C29.2114 8.75 29.5113 8.5575 29.6823 8.38469C29.8821 8.16919 29.9925 7.91629 30.0003 7.65625C30.0003 7.36617 30.1584 7.08797 30.4397 6.88285C30.721 6.67773 31.1025 6.5625 31.5003 6.5625C31.8981 6.5625 32.2796 6.67773 32.5609 6.88285C32.8422 7.08797 33.0003 7.36617 33.0003 7.65625C33.0003 8.19656 32.7903 8.98187 32.1183 9.66219C31.3893 10.3994 30.1893 10.9375 28.5004 10.9375C27.911 10.9416 27.3254 10.8675 26.7724 10.7188Z" fill="black"/>
</svg>
