<svg width="35" height="33" viewBox="0 0 35 33" fill="none" xmlns="http://www.w3.org/2000/svg">
<path fill-rule="evenodd" clip-rule="evenodd" d="M6.47679 5.25982C6.09479 5.72682 5.99979 6.06282 5.99979 6.14682C5.99988 6.35357 5.93589 6.55526 5.81662 6.72414C5.69735 6.89301 5.52867 7.02077 5.33379 7.08982C4.26013 7.46761 3.18445 7.83961 2.10679 8.20582C2.17479 8.56282 2.27979 8.99282 2.43679 9.41482C2.83279 10.4758 3.35379 10.9998 3.99979 10.9998C5.33379 10.9998 6.56679 10.9108 7.44479 10.5408C7.86479 10.3638 8.15379 10.1428 8.34179 9.87882C8.52579 9.62182 8.66679 9.25082 8.66679 8.67482H10.6668C10.6668 9.59982 10.4318 10.3938 9.96979 11.0408C9.78803 11.2949 9.57389 11.5242 9.33279 11.7228C9.32579 13.2408 9.25179 14.5128 9.18979 15.5688L9.16979 15.9068C9.10079 17.1068 9.06879 17.9378 9.15779 18.5928C9.23979 19.1978 9.41779 19.5848 9.74779 19.9198C10.1128 20.2898 10.7348 20.6678 11.8528 21.0898C12.0428 21.1615 12.2065 21.2894 12.3221 21.4564C12.4377 21.6234 12.4997 21.8217 12.4998 22.0248C12.4998 23.2048 12.6318 24.1728 12.7498 25.0458C12.8088 25.4728 12.8638 25.8778 12.8988 26.2738C12.9438 26.7858 12.9728 27.4438 12.7208 27.9908C12.5715 28.3226 12.3175 28.5962 11.9978 28.7698C11.6738 28.9458 11.3238 28.9998 10.9998 28.9998C10.9538 28.9998 10.7998 29.0308 10.5558 29.2358C10.3047 29.4551 10.0918 29.7147 9.92579 30.0038L9.92479 30.0068C10.3538 30.0118 10.7508 30.0208 11.1148 30.0288L11.8518 30.0428C12.6338 30.0558 13.1578 30.0448 13.5258 29.9848C13.7018 29.9558 13.8028 29.9218 13.8588 29.8948C13.8778 29.8861 13.8956 29.875 13.9118 29.8618C13.9138 29.8588 13.9998 29.7488 13.9998 29.2738V23.0248C13.9999 22.8146 14.0662 22.6098 14.1894 22.4394C14.3125 22.2691 14.4862 22.1418 14.6858 22.0758L23.0188 19.3148C23.241 19.2411 23.4819 19.2477 23.6997 19.3334C23.9176 19.4191 24.0984 19.5785 24.2108 19.7838C24.5378 20.3818 24.8228 20.9298 25.0728 21.4098C25.2118 21.6778 25.3398 21.9238 25.4578 22.1458C25.8008 22.7898 26.0878 23.2808 26.4138 23.7148C27.0438 24.5498 27.8948 25.2698 29.8158 26.3268C29.9349 26.3925 30.0393 26.4819 30.1227 26.5893C30.2061 26.6968 30.2667 26.8201 30.3008 26.9518C30.4508 27.5288 30.4778 28.0858 30.2268 28.5998C30.0358 28.9898 29.6998 29.2668 29.5508 29.3898L29.5028 29.4298C29.3528 29.5598 29.2608 29.6568 29.1828 29.8228C29.1568 29.8803 29.1348 29.9394 29.1168 29.9998H31.3328V25.6958L28.0918 18.6458L29.9088 17.8108L31.9548 22.2608C32.0828 21.3008 32.1678 20.2108 32.1248 19.1308C32.0658 17.6128 31.7598 16.2398 31.0888 15.2698C30.4628 14.3648 29.4498 13.7058 27.6668 13.7058C26.8608 13.7058 26.0668 13.7158 25.2938 13.7258C24.1238 13.7408 23.0038 13.7548 21.9748 13.7318C20.2418 13.6938 18.6128 13.5508 17.1218 13.1018C15.6108 12.6468 14.2528 11.8818 13.0598 10.6278C11.8768 9.38382 10.8948 7.69982 10.0628 5.45982C9.70879 4.50782 9.28779 4.18182 8.99779 4.06982C8.69379 3.95182 8.29079 3.97482 7.79779 4.20482C7.30779 4.43482 6.82879 4.82882 6.47779 5.25882L6.47679 5.25982ZM33.3328 25.6118V30.9998C33.3328 31.265 33.2274 31.5194 33.0399 31.7069C32.8524 31.8945 32.598 31.9998 32.3328 31.9998H27.9998C27.7346 31.9998 27.4802 31.8945 27.2927 31.7069C27.1051 31.5194 26.9998 31.265 26.9998 30.9998C26.9998 30.1528 27.1278 29.5028 27.3698 28.9818C27.6178 28.4458 27.9498 28.1298 28.1928 27.9188L28.3388 27.7908C26.6208 26.8018 25.6118 25.9738 24.8168 24.9178C24.3928 24.3558 24.0488 23.7538 23.6928 23.0868C23.5531 22.8235 23.4148 22.5595 23.2778 22.2948C23.1438 22.0368 23.0038 21.7668 22.8508 21.4768L15.9998 23.7468V29.2738C15.9998 29.9118 15.8988 30.5738 15.4788 31.1038C15.0448 31.6518 14.4258 31.8638 13.8488 31.9588C13.2788 32.0518 12.5848 32.0548 11.8198 32.0428L11.0438 32.0278C10.3626 32.0107 9.68121 32.0014 8.99979 31.9998C8.58979 31.9998 8.15479 31.8228 7.89179 31.4048C7.67279 31.0578 7.66279 30.6848 7.68279 30.4478C7.72379 29.9578 7.94279 29.4328 8.19879 28.9958C8.48085 28.507 8.84365 28.0695 9.27179 27.7018C9.68479 27.3568 10.2538 27.0248 10.9248 27.0018V26.9978C10.9319 26.8153 10.9259 26.6325 10.9068 26.4508C10.8838 26.1978 10.8408 25.8778 10.7908 25.5048C10.6888 24.7428 10.5568 23.7638 10.5138 22.7068C9.59979 22.3148 8.87079 21.8768 8.32379 21.3238C7.62379 20.6138 7.30179 19.7918 7.17579 18.8608C7.05579 17.9808 7.10679 16.9478 7.17379 15.7928L7.19379 15.4548C7.24079 14.6388 7.29379 13.7248 7.31879 12.6818C6.23179 12.9558 5.03479 12.9998 3.99979 12.9998C1.97979 12.9998 0.999793 11.2878 0.562793 10.1128C0.359963 9.55605 0.208008 8.98203 0.108793 8.39782C0.0668668 8.15708 0.033512 7.91493 0.00879285 7.67182L0.00479314 7.62382L0.00279281 7.60982V7.60282L0.999793 7.52882L0.676793 6.58182L1.13079 6.42682C2.13008 6.08462 3.12875 5.74062 4.12679 5.39482C4.29379 4.87982 4.60279 4.39182 4.92879 3.99382C5.44179 3.36682 6.14979 2.76882 6.95079 2.39382C7.75079 2.02082 8.74279 1.82682 9.72079 2.20582C10.7118 2.58982 11.4578 3.47182 11.9368 4.76382C12.7068 6.83882 13.5678 8.26082 14.5088 9.25082C15.4388 10.2288 16.4848 10.8228 17.6988 11.1878C18.9318 11.5588 20.3478 11.6968 22.0188 11.7338C23.0268 11.7558 24.0738 11.7418 25.2058 11.7268C25.9818 11.7168 26.7968 11.7068 27.6658 11.7068C30.0498 11.7068 31.7038 12.6428 32.7338 14.1328C33.7188 15.5578 34.0588 17.3768 34.1238 19.0528C34.1908 20.7478 33.9808 22.4228 33.7598 23.6578C33.6425 24.3147 33.5001 24.9669 33.3328 25.6128V25.6118ZM0.999793 7.52782L0.676793 6.58082C0.467271 6.65238 0.287421 6.79145 0.165444 6.97623C0.0434673 7.161 -0.01374 7.38104 0.00279281 7.60182L0.999793 7.52782Z" fill="black"/>
<path fill-rule="evenodd" clip-rule="evenodd" d="M32.7068 0.292787C32.8943 0.480314 32.9996 0.734622 32.9996 0.999786C32.9996 1.26495 32.8943 1.51926 32.7068 1.70679L17.2068 17.2068C17.0193 17.3943 16.765 17.4997 16.4998 17.4998H8.99979C8.73458 17.4998 8.48022 17.3944 8.29269 17.2069C8.10515 17.0194 7.99979 16.765 7.99979 16.4998C7.99979 16.2346 8.10515 15.9802 8.29269 15.7927C8.48022 15.6051 8.73458 15.4998 8.99979 15.4998H16.0858L31.2928 0.292787C31.4803 0.105316 31.7346 0 31.9998 0C32.265 0 32.5193 0.105316 32.7068 0.292787Z" fill="black"/>
<path fill-rule="evenodd" clip-rule="evenodd" d="M15.4998 22.4998V15.9998H17.4998V22.4998H15.4998Z" fill="black"/>
</svg>
