<svg width="60" height="56" viewBox="0 0 60 56" fill="none" xmlns="http://www.w3.org/2000/svg">
<path d="M47.8203 3.161C45.3383 1.56 43.7673 2.248 43.0043 2.869C42.1493 2.293 41.2913 1.81 40.4403 1.471C38.0983 0.537 34.2913 0 30.0003 0C25.7073 0 21.9023 0.537 19.5593 1.472C18.7083 1.811 17.8483 2.295 16.9933 2.871C16.2283 2.251 14.6603 1.567 12.1803 3.166C6.80131 6.63 -4.7217 5.257 2.0993 20.189C3.1953 22.586 4.0393 24.28 4.7803 25.222C4.71231 33.882 7.5653 45.22 13.2303 48.902C19.9733 53.284 25.2143 56 30.5003 56C35.7843 56 41.0263 53.284 47.7683 48.901C53.5143 45.169 55.6233 33.627 55.3073 25.104C56.0263 24.143 56.8483 22.489 57.9013 20.184C64.7213 5.252 53.1993 6.625 47.8203 3.161ZM46.6783 47.225C40.2423 51.407 35.2913 54 30.5003 54C25.7083 54 20.7563 51.407 14.3203 47.225C9.5233 44.107 6.8803 33.757 6.7993 25.751C7.6903 24.958 8.6503 22.758 10.0123 19.006C11.1213 15.948 11.0823 13.644 11.3613 11.575C13.9193 7.902 17.2573 4.544 20.3013 3.329C22.3843 2.497 26.0113 2 30.0003 2C33.9893 2 37.6143 2.497 39.7003 3.329C42.7453 4.544 46.0853 7.904 48.6413 11.579C48.9183 13.645 48.8813 15.948 49.9893 19.001C51.4423 23.001 52.4363 25.237 53.3783 25.882C53.5743 33.976 51.4003 44.157 46.6783 47.225Z" fill="black"/>
<path d="M22.2493 26.731C22.2493 23.14 19.3333 20.219 15.7493 20.219C12.1653 20.219 9.2493 23.14 9.2493 26.731C9.2493 30.323 12.1653 33.245 15.7493 33.245C19.3333 33.245 22.2493 30.323 22.2493 26.731ZM11.6793 30.427C12.4315 30.9569 13.3292 31.2413 14.2493 31.241C16.7343 31.241 18.7493 29.223 18.7493 26.731C18.7504 25.5364 18.2769 24.3902 17.433 23.5447C16.5891 22.6991 15.4439 22.2233 14.2493 22.222C13.2913 22.222 12.4083 22.527 11.6783 23.038C12.1913 22.4662 12.8189 22.0088 13.5203 21.6954C14.2216 21.382 14.9811 21.2197 15.7493 21.219C18.7813 21.219 21.2493 23.692 21.2493 26.731C21.2493 29.771 18.7813 32.245 15.7493 32.245C14.9813 32.2443 14.2221 32.0821 13.5209 31.7689C12.8198 31.4557 12.1923 30.9985 11.6793 30.427Z" fill="black"/>
<path d="M44.2503 20.219C40.6663 20.219 37.7503 23.14 37.7503 26.731C37.7503 30.323 40.6663 33.245 44.2503 33.245C47.8343 33.245 50.7503 30.323 50.7503 26.731C50.7503 23.141 47.8343 20.219 44.2503 20.219ZM44.2503 32.245C41.2193 32.245 38.7503 29.771 38.7503 26.731C38.7503 23.692 41.2193 21.219 44.2503 21.219C45.8653 21.219 47.3143 21.924 48.3223 23.038C47.5696 22.5073 46.6713 22.2223 45.7503 22.222C44.5557 22.2233 43.4105 22.6991 42.5666 23.5447C41.7227 24.3902 41.2492 25.5364 41.2503 26.731C41.2496 27.3226 41.3655 27.9085 41.5913 28.4554C41.8171 29.0022 42.1484 29.4992 42.5663 29.918C42.9841 30.3368 43.4804 30.6692 44.0267 30.8962C44.573 31.1232 45.1587 31.2403 45.7503 31.241C46.7073 31.241 47.5923 30.937 48.3203 30.427C47.8074 30.9986 47.18 31.4559 46.4788 31.7691C45.7776 32.0823 45.0183 32.2445 44.2503 32.245Z" fill="black"/>
<path d="M39.0553 30.777C36.9123 28.546 33.6123 27.266 29.9973 27.266C26.3853 27.266 23.0873 28.545 20.9503 30.778L13.8043 38.257C11.5983 40.566 11.5983 44.321 13.8043 46.632C14.8783 47.755 16.3103 48.374 17.8353 48.374C19.0799 48.3725 20.2874 47.9499 21.2613 47.175L23.9783 50.02C25.4063 51.507 27.6013 52.359 30.0013 52.359C32.4003 52.359 34.5933 51.506 36.0173 50.019L38.7383 47.173C39.7116 47.9493 40.9193 48.3727 42.1643 48.374C43.6893 48.374 45.1213 47.755 46.1973 46.631C48.4003 44.321 48.4003 40.566 46.1973 38.257L39.0553 30.777ZM35.2953 49.327C34.0613 50.618 32.1293 51.358 30.0023 51.358C27.8723 51.358 25.9393 50.618 24.7013 49.328L21.9983 46.497L24.6643 43.708L25.7223 42.603C25.2463 43.993 25.0763 45.14 25.2273 46.016C25.7003 48.777 27.9653 50.012 30.0003 50.012C32.0363 50.012 34.3013 48.777 34.7743 46.017C34.9243 45.139 34.7543 43.992 34.2783 42.599L38.0033 46.495L35.2953 49.327ZM45.4733 45.94C45.0486 46.392 44.536 46.7523 43.967 46.9989C43.3979 47.2455 42.7845 47.3732 42.1643 47.374C41.0273 47.374 39.9613 46.933 39.1073 46.157L39.0543 46.108C38.9896 46.0493 38.9225 45.9933 38.8533 45.94L32.5073 39.301L31.7083 38.464C31.2843 38.022 30.6633 37.768 30.0003 37.768C29.3373 37.768 28.7163 38.022 28.2943 38.463L27.4933 39.301L21.0743 46C21.0295 46.0352 20.9858 46.0719 20.9433 46.11L20.8933 46.157C20.0403 46.932 18.9743 47.374 17.8353 47.374C16.5853 47.374 15.4103 46.864 14.5273 45.94C12.6853 44.011 12.6853 40.875 14.5273 38.947L21.6733 31.469C23.6213 29.434 26.6563 28.266 29.9973 28.266C33.3403 28.266 36.3793 29.434 38.3323 31.468L45.4733 38.947C47.3143 40.875 47.3143 44.013 45.4733 45.94Z" fill="black"/>
<path d="M30.0003 28.511C26.7433 28.511 24.1023 29.019 24.1023 31.654C24.1023 33.748 28.7943 35.605 30.0003 35.605C31.2043 35.605 35.8993 33.748 35.8993 31.654C35.8983 29.019 33.2583 28.511 30.0003 28.511Z" fill="black"/>
<path d="M23.3133 35.001L22.3133 33.999L21.3133 35.003L22.3133 36.005L23.3133 35.001Z" fill="black"/>
<path d="M19.9323 38.7591L18.9323 37.7591L19.9333 36.7581L20.9333 37.7581L19.9323 38.7591Z" fill="black"/>
<path d="M22.0633 38.761L23.0633 39.763L24.0633 38.759L23.0633 37.757L22.0633 38.761Z" fill="black"/>
<path d="M36.6863 35.001L37.6863 36.005L38.6863 35.003L37.6863 33.999L36.6863 35.001Z" fill="black"/>
<path d="M40.0673 38.758L39.0673 37.756L40.0673 36.757L41.0673 37.76L40.0673 38.758Z" fill="black"/>
<path d="M35.9363 38.759L36.9363 39.763L37.9363 38.761L36.9363 37.757L35.9363 38.759Z" fill="black"/>
</svg>
