<svg width="17" height="11" viewBox="0 0 17 11" fill="none" xmlns="http://www.w3.org/2000/svg">
<path fill-rule="evenodd" clip-rule="evenodd" d="M8.21895 2.243C9.14695 0.988 10.173 0 11.485 0C13.962 0 16.002 3.153 16.003 6.907C16.003 9.197 15.017 10.632 13.246 10.632C11.703 10.632 10.851 9.766 9.32195 7.208L8.65495 6.085L8.53695 5.888C8.36302 5.59403 8.18634 5.30168 8.00695 5.011L6.82895 7.091C5.15595 10.016 4.21395 10.632 2.90595 10.632C1.08795 10.632 0.00195312 9.217 0.00195312 6.973C0.00195312 3.388 1.99695 0 4.59995 0C4.91895 0 5.22495 0.039 5.52395 0.122C5.83395 0.208 6.13495 0.342 6.43695 0.529C7.01395 0.888 7.59095 1.444 8.21895 2.243ZM9.73495 4.467C9.48295 4.057 9.24095 3.68 9.00795 3.334L9.00195 3.326C9.84695 2.021 10.545 1.372 11.374 1.372C13.097 1.372 14.476 3.909 14.476 7.025C14.476 8.213 14.086 8.902 13.281 8.902C12.508 8.902 12.139 8.392 10.671 6.032L9.73395 4.467H9.73495ZM4.84795 1.756C5.57295 1.856 6.23295 2.39 7.18795 3.757C6.63692 4.60077 6.09191 5.44846 5.55295 6.3C4.19595 8.426 3.72695 8.903 2.97195 8.903C2.19495 8.903 1.73195 8.221 1.73195 7.003C1.73195 4.401 3.02995 1.739 4.57795 1.739C4.66895 1.739 4.75895 1.745 4.84795 1.757V1.756Z" fill="#141414"/>
</svg>
