<svg width="20" height="20" viewBox="0 0 20 20" fill="none" xmlns="http://www.w3.org/2000/svg">
<path d="M10.002 14C11.0628 14 12.0802 13.5786 12.8304 12.8284C13.5805 12.0783 14.002 11.0609 14.002 10C14.002 8.93913 13.5805 7.92172 12.8304 7.17157C12.0802 6.42143 11.0628 6 10.002 6C8.94109 6 7.92367 6.42143 7.17353 7.17157C6.42338 7.92172 6.00195 8.93913 6.00195 10C6.00195 11.0609 6.42338 12.0783 7.17353 12.8284C7.92367 13.5786 8.94109 14 10.002 14V14Z" stroke="#141414" stroke-width="1.5" stroke-linecap="round" stroke-linejoin="round"/>
<path d="M1.00195 14V6C1.00195 4.67392 1.52874 3.40215 2.46642 2.46447C3.4041 1.52678 4.67587 1 6.00195 1H14.002C15.328 1 16.5998 1.52678 17.5375 2.46447C18.4752 3.40215 19.002 4.67392 19.002 6V14C19.002 15.3261 18.4752 16.5979 17.5375 17.5355C16.5998 18.4732 15.328 19 14.002 19H6.00195C4.67587 19 3.4041 18.4732 2.46642 17.5355C1.52874 16.5979 1.00195 15.3261 1.00195 14Z" stroke="#141414" stroke-width="1.5"/>
<path d="M15.502 4.51002L15.512 4.49902" stroke="#141414" stroke-width="1.5" stroke-linecap="round" stroke-linejoin="round"/>
</svg>
