<svg width="16" height="16" viewBox="0 0 16 16" fill="none" xmlns="http://www.w3.org/2000/svg">
<path d="M15.5612 0.145173C15.6304 0.214505 15.6778 0.302647 15.6973 0.398651C15.7169 0.494654 15.7078 0.594287 15.6712 0.685173L9.85221 15.2322C9.80093 15.3603 9.7153 15.4718 9.60474 15.5543C9.49418 15.6369 9.36299 15.6874 9.22559 15.7002C9.0882 15.713 8.94993 15.6877 8.826 15.627C8.70208 15.5663 8.5973 15.4726 8.52321 15.3562L5.34521 10.3612L0.350207 7.18317C0.233525 7.10916 0.139559 7.00434 0.0786769 6.8803C0.0177952 6.75626 -0.00763512 6.61781 0.00519203 6.48023C0.0180192 6.34264 0.0686051 6.21128 0.151368 6.10063C0.234131 5.98998 0.345853 5.90434 0.474207 5.85317L15.0212 0.0361732C15.1121 -0.000414535 15.2117 -0.00949426 15.3077 0.0100619C15.4037 0.0296181 15.4919 0.0769483 15.5612 0.146173V0.145173ZM6.34321 10.0692L9.10421 14.4072L13.8372 2.57517L6.34321 10.0692ZM13.1302 1.86817L1.29821 6.60117L5.63721 9.36117L13.1312 1.86817H13.1302Z" fill="white"/>
</svg>
