<svg width="20" height="16" viewBox="0 0 20 16" fill="none" xmlns="http://www.w3.org/2000/svg">
<path d="M17.635 3.978C17.648 4.153 17.648 4.327 17.648 4.501C17.648 9.826 13.595 15.962 6.18795 15.962C3.90595 15.962 1.78595 15.301 0.00195312 14.153C0.325953 14.19 0.637953 14.203 0.974953 14.203C2.78795 14.2074 4.5496 13.6011 5.97595 12.482C5.13537 12.4668 4.32053 12.1895 3.64519 11.6887C2.96985 11.188 2.46774 10.4889 2.20895 9.689C2.45795 9.726 2.70795 9.751 2.96995 9.751C3.33095 9.751 3.69395 9.701 4.03095 9.614C3.11871 9.42981 2.29843 8.93535 1.70957 8.21469C1.12072 7.49402 0.799646 6.59165 0.800953 5.661V5.611C1.33795 5.91 1.96095 6.097 2.62095 6.122C2.06804 5.75459 1.61467 5.25602 1.30129 4.67079C0.987913 4.08556 0.824266 3.43186 0.824953 2.768C0.824953 2.02 1.02395 1.334 1.37295 0.736001C2.38509 1.98102 3.64746 2.99956 5.07829 3.72566C6.50912 4.45176 8.07651 4.86922 9.67895 4.951C9.61695 4.651 9.57895 4.34 9.57895 4.028C9.57869 3.49896 9.6827 2.97506 9.88503 2.48624C10.0874 1.99742 10.3841 1.55327 10.7581 1.17919C11.1322 0.805102 11.5764 0.508411 12.0652 0.306078C12.554 0.103746 13.0779 -0.000262379 13.607 4.97063e-07C14.767 4.97063e-07 15.814 0.486 16.55 1.272C17.4517 1.09762 18.3165 0.768422 19.106 0.299C18.8054 1.22982 18.1757 2.0191 17.335 2.519C18.1347 2.42778 18.9164 2.21745 19.654 1.895C19.1031 2.6981 18.4205 3.40235 17.635 3.978Z" fill="#141414"/>
</svg>
